<?xml version="1.0" encoding="UTF-8" standalone="yes"?>
<svg version="1.1" id="Layer_1" xmlns:x="&amp;ns_extend;" xmlns:i="&amp;ns_ai;" xmlns:graph="&amp;ns_graphs;" xmlns="http://www.w3.org/2000/svg" xmlns:xlink="http://www.w3.org/1999/xlink" x="0px" y="0px" viewBox="0 0 291.613 315" style="enable-background:new 0 0 291.613 315;" xml:space="preserve">
      <style type="text/css">.st0{fill:url(#SVGID_1_);}</style>
    <metadata>
              <sfw>
                      <slices/>
            <sliceSourceBounds bottomLeftOrigin="true" height="315.002" width="291.617" x="0" y="-0.002"/>
                  </sfw>
          </metadata>
    <g id="color_index_g">
              <linearGradient id="SVGID_1_" gradientUnits="userSpaceOnUse" x1="35.792" y1="48.8971" x2="230.4254" y2="332.7376" gradientTransform="matrix(1 0 0 -1 0 316)">
                      <stop offset="0" style="stop-color:rgba(209, 114, 255, 1)"/>
            <stop offset="0.7533" style="stop-color:rgba(101, 171, 255, 1)"/>
                  </linearGradient>
        <path class="st0" d="M291.594,27.567c-0.004-0.089,0.003-0.179-0.005-0.267c-0.004-0.047-0.02-0.094-0.026-0.141&#x9;&#x9;c-0.005-0.039-0.016-0.077-0.022-0.117c-0.022-0.148-0.046-0.294-0.081-0.438c-0.02-0.083-0.035-0.167-0.06-0.248&#x9;&#x9;c-0.003-0.01-0.003-0.021-0.006-0.032c-0.02-0.065-0.055-0.12-0.077-0.183c-0.052-0.147-0.105-0.291-0.17-0.43&#x9;&#x9;c-0.037-0.078-0.07-0.156-0.11-0.233c-0.041-0.076-0.09-0.145-0.134-0.218c-0.072-0.118-0.144-0.235-0.225-0.346&#x9;&#x9;c-0.053-0.074-0.105-0.147-0.162-0.218c-0.056-0.069-0.119-0.13-0.179-0.195c-0.088-0.097-0.176-0.19-0.272-0.279&#x9;&#x9;c-0.07-0.066-0.138-0.131-0.212-0.193c-0.065-0.054-0.134-0.098-0.201-0.148c-0.11-0.082-0.222-0.161-0.339-0.234&#x9;&#x9;c-0.079-0.049-0.154-0.099-0.236-0.144c-0.07-0.038-0.144-0.067-0.216-0.102c-0.138-0.066-0.277-0.126-0.422-0.179&#x9;&#x9;c-0.061-0.022-0.113-0.057-0.175-0.077l-70.48-22.908c-0.974-0.316-2.025-0.316-2.999,0l-68.978,22.42L76.828,0.237&#x9;&#x9;c-0.974-0.316-2.025-0.316-2.999,0L3.45,23.113c-0.002,0.001-0.004,0.001-0.006,0.002l-0.094,0.03&#x9;&#x9;c-0.061,0.02-0.113,0.054-0.173,0.076c-0.136,0.05-0.268,0.104-0.397,0.166c-0.087,0.041-0.176,0.077-0.26,0.123&#x9;&#x9;c-0.077,0.042-0.147,0.092-0.221,0.138c-0.106,0.066-0.208,0.136-0.309,0.21c-0.082,0.06-0.167,0.116-0.246,0.182&#x9;&#x9;c-0.071,0.06-0.134,0.125-0.201,0.187c-0.084,0.079-0.163,0.16-0.241,0.245c-0.074,0.079-0.15,0.154-0.218,0.239&#x9;&#x9;c-0.055,0.069-0.103,0.141-0.155,0.213c-0.071,0.098-0.134,0.198-0.198,0.301c-0.055,0.09-0.115,0.175-0.165,0.269&#x9;&#x9;c-0.04,0.075-0.071,0.154-0.107,0.231c-0.057,0.122-0.103,0.247-0.15,0.375c-0.028,0.077-0.071,0.146-0.095,0.225&#x9;&#x9;C0.21,26.34,0.21,26.355,0.205,26.37c-0.025,0.082-0.037,0.168-0.058,0.251c-0.031,0.129-0.052,0.261-0.073,0.394&#x9;&#x9;c-0.016,0.1-0.046,0.199-0.055,0.298c-0.008,0.091,0.001,0.183-0.003,0.275C0.015,27.646,0,27.7,0,27.758v86.595&#x9;&#x9;c0,0.304,0.035,0.6,0.09,0.891c0.018,0.098,0.047,0.19,0.071,0.286c0.048,0.19,0.103,0.376,0.173,0.558&#x9;&#x9;c0.039,0.102,0.081,0.2,0.126,0.298c0.081,0.174,0.173,0.34,0.273,0.503c0.051,0.083,0.098,0.167,0.154,0.247&#x9;&#x9;c0.144,0.205,0.304,0.398,0.478,0.579c0.023,0.024,0.042,0.053,0.066,0.077c0.202,0.201,0.424,0.381,0.661,0.545&#x9;&#x9;c0.073,0.05,0.152,0.09,0.227,0.137c0.168,0.103,0.339,0.2,0.521,0.283c0.104,0.048,0.211,0.087,0.319,0.128&#x9;&#x9;c0.087,0.033,0.169,0.076,0.259,0.104l67.06,20.753v148.596c0,0.304,0.035,0.6,0.09,0.891c0.018,0.098,0.047,0.19,0.071,0.286&#x9;&#x9;c0.048,0.19,0.103,0.376,0.173,0.558c0.039,0.102,0.081,0.2,0.126,0.298c0.081,0.174,0.173,0.34,0.273,0.503&#x9;&#x9;c0.051,0.083,0.098,0.167,0.154,0.247c0.144,0.205,0.304,0.398,0.478,0.579c0.023,0.024,0.042,0.053,0.066,0.077&#x9;&#x9;c0.202,0.201,0.424,0.381,0.661,0.545c0.073,0.05,0.152,0.09,0.227,0.137c0.168,0.103,0.339,0.2,0.521,0.283&#x9;&#x9;c0.104,0.048,0.211,0.087,0.319,0.128c0.087,0.033,0.169,0.076,0.259,0.104l70.478,21.811c0.094,0.029,0.191,0.042,0.286,0.065&#x9;&#x9;c0.093,0.023,0.184,0.047,0.279,0.064c0.288,0.053,0.578,0.088,0.87,0.088s0.582-0.035,0.87-0.088&#x9;&#x9;c0.095-0.017,0.186-0.041,0.279-0.064c0.095-0.023,0.192-0.036,0.286-0.065l70.477-21.811c0.09-0.028,0.171-0.071,0.259-0.104&#x9;&#x9;c0.108-0.04,0.215-0.08,0.319-0.128c0.182-0.083,0.353-0.18,0.521-0.283c0.076-0.047,0.155-0.086,0.227-0.137&#x9;&#x9;c0.236-0.164,0.459-0.344,0.661-0.545c0.024-0.024,0.043-0.052,0.066-0.077c0.174-0.181,0.334-0.374,0.478-0.579&#x9;&#x9;c0.056-0.079,0.103-0.164,0.154-0.247c0.1-0.163,0.192-0.329,0.273-0.503c0.046-0.098,0.087-0.197,0.126-0.298&#x9;&#x9;c0.07-0.182,0.125-0.368,0.173-0.558c0.024-0.096,0.052-0.188,0.071-0.286c0.054-0.291,0.09-0.587,0.09-0.891V139.741l67.06-20.753&#x9;&#x9;c0.09-0.028,0.171-0.071,0.259-0.104c0.108-0.04,0.215-0.08,0.319-0.128c0.182-0.083,0.353-0.18,0.521-0.283&#x9;&#x9;c0.076-0.047,0.155-0.086,0.227-0.137c0.236-0.164,0.459-0.344,0.661-0.545c0.024-0.024,0.043-0.052,0.066-0.077&#x9;&#x9;c0.174-0.181,0.334-0.374,0.478-0.579c0.056-0.079,0.103-0.164,0.154-0.247c0.1-0.163,0.192-0.329,0.273-0.503&#x9;&#x9;c0.046-0.098,0.087-0.197,0.126-0.298c0.07-0.182,0.125-0.368,0.173-0.558c0.024-0.096,0.052-0.188,0.071-0.286&#x9;&#x9;c0.054-0.291,0.09-0.587,0.09-0.891V27.758C291.613,27.693,291.596,27.632,291.594,27.567z M70.477,129.584l-49.216-15.231&#x9;&#x9;l49.216-15.232V129.584z M70.477,88.964l-60.774,18.81V34.34l60.774,18.808V88.964z M20.893,27.646L75.329,9.953l54.433,17.693&#x9;&#x9;L75.327,44.491L20.893,27.646z M140.955,34.339v76.437L80.18,129.584V53.147L140.955,34.339z M140.955,303.568l-49.216-15.231&#x9;&#x9;l49.216-15.232V303.568z M140.955,262.949L80.18,281.758V142.744l60.775,18.808V262.949z M145.807,152.896l-54.068-16.732&#x9;&#x9;l54.068-16.732l54.067,16.732L145.807,152.896z M150.658,303.568v-30.462l49.216,15.232L150.658,303.568z M211.433,281.758&#x9;&#x9;l-60.774-18.809V161.552l60.774-18.808V281.758z M211.433,129.584l-60.774-18.808V34.34l60.774,18.808V129.584z M216.282,44.491&#x9;&#x9;l-54.433-16.845l54.435-17.693l54.434,17.692L216.282,44.491z M221.136,129.584V99.122l49.216,15.232L221.136,129.584z&#x9;&#x9; M281.91,107.774l-60.774-18.809V53.147l60.774-18.808V107.774z"/>
          </g>
  </svg>